# xmcd
#
# Track frame offsets:
#  150
#  11875
#  23492
#
# Disc length: 469 seconds
#
# Revision: 0
# Processed by: cddbd v1.5.1PL0 Copyright (c) Steve Scherf et al.
# Submitted via: AltoMP3_Maker 3.0
#
DISCID=1701d303
DTITLE=John Williamson - Golden Kangaroo
DYEAR=1900
DGENRE=
TTITLE0=Golden Kangaroo - Vocal
TTITLE1=Golden Kangaroo - Singalong
TTITLE2=Golden Kangaroo - Instrumental
EXTD=
EXTT0=
EXTT1=
EXTT2=
PLAYORDER=
